<svg width="180" height="41" viewBox="0 0 180 41" fill="none" xmlns="http://www.w3.org/2000/svg">
<g clip-path="url(#clip0_3091_15674)">
<path d="M20.3484 0.721191C9.1401 0.721191 0 9.76741 0 20.8606C0 32.0198 9.1401 41 20.3484 41C31.6234 41 40.6968 31.9538 40.6968 20.8606C40.7635 9.76741 31.6234 0.721191 20.3484 0.721191ZM20.3484 39.0191C10.2743 39.0191 2.0682 30.8973 2.0682 20.8606C2.0682 10.8239 10.2743 2.76815 20.3484 2.76815C30.4893 2.76815 38.6953 10.8899 38.6953 20.8606C38.6953 30.8312 30.4893 39.0191 20.3484 39.0191Z" fill="white"/>
<path d="M27.5542 22.5114V24.4263C29.0886 24.6244 30.2895 25.879 30.2895 27.6618C30.2895 28.8504 29.2888 29.9069 28.0212 29.9069C26.7536 29.9069 25.7528 28.9164 25.7528 27.6618V14.1255C25.7528 12.8709 26.7536 11.8805 28.0212 11.8805C29.2888 11.8805 30.2895 12.937 30.2895 14.1255C30.2895 15.8423 29.0886 17.1629 27.5542 17.361V19.2759C30.8232 19.2099 33.4252 16.5687 33.4252 13.3332C33.4252 10.5599 31.1568 7.39038 27.7543 7.39038C24.8855 7.39038 22.4837 9.70146 22.4837 12.6068V19.2759H18.2139V12.6068C18.2139 9.76749 15.8788 7.39038 12.9433 7.39038C9.47409 7.39038 7.27246 10.5599 7.27246 13.3332C7.27246 16.5687 9.87439 19.2099 13.1435 19.2759V17.361C11.609 17.1629 10.4081 15.9084 10.4081 14.1255C10.4081 12.937 11.4089 11.8805 12.6765 11.8805C13.9441 11.8805 14.9448 12.8709 14.9448 14.1255V27.5958C14.9448 28.8504 13.9441 29.8409 12.6765 29.8409C11.4089 29.8409 10.4081 28.7844 10.4081 27.5958C10.4081 25.879 11.609 24.5584 13.1435 24.3603V22.5114C9.87439 22.5775 7.27246 25.2187 7.27246 28.4542C7.27246 31.2275 9.54081 34.397 12.9433 34.397C15.8121 34.397 18.2139 32.0859 18.2139 29.1805V22.5114H22.4837V29.1145C22.4837 31.9538 24.8188 34.331 27.7543 34.331C31.2235 34.331 33.4252 31.1615 33.4252 28.3882C33.4252 25.1527 30.8232 22.5775 27.5542 22.5114Z" fill="white"/>
<path d="M156.049 4.15479H153.113V23.6999H156.049V4.15479Z" fill="white"/>
<path d="M59.3774 4.15479V12.5407H50.2373V4.15479H47.3018V23.6999H50.2373V15.314H59.3774V23.6999H62.3129V4.15479H59.3774Z" fill="white"/>
<path d="M76.5904 4.15479H75.9233L66.583 23.6999H69.1849C69.6519 23.6999 69.9855 23.4358 70.119 23.0396L72.0537 18.8797H80.2598L82.2613 23.1056C82.3947 23.4358 82.795 23.6999 83.1953 23.6999H85.7972L76.5904 4.15479ZM73.4548 16.1724L76.2568 10.2957L79.0589 16.1724H73.4548Z" fill="white"/>
<path d="M118.021 4.15479H117.354L108.08 23.6999H110.682C111.082 23.6999 111.483 23.4358 111.616 23.0396L113.551 18.8797H121.757L123.758 23.1056C123.892 23.4358 124.292 23.6999 124.692 23.6999H127.294L118.021 4.15479ZM114.885 16.1724L117.687 10.2957L120.489 16.1724H114.885Z" fill="white"/>
<path d="M102.876 14.5215L93.2694 11.0219C92.9358 10.8898 92.7356 10.4936 92.8023 10.1635C93.3361 8.38064 95.004 7.12606 96.9387 7.12606C98.7401 7.12606 100.275 8.24858 100.942 9.76729C101.209 10.4936 101.876 10.2955 101.942 10.2955L104.011 9.76729C103.277 6.59781 100.341 4.2207 96.9387 4.2207C93.3361 4.2207 90.4006 6.7959 89.8001 10.1635C89.8001 10.2955 89.7334 10.4936 89.7334 10.6257C89.7334 10.6917 89.7334 10.7578 89.7334 10.8238C89.7334 10.8898 89.7334 11.0219 89.7334 11.0879V11.22C89.7334 12.0784 90.2671 12.8047 91.001 13.1349C91.001 13.1349 98.6066 15.9082 100.742 16.7005C101.342 16.9647 101.209 17.625 101.209 17.625C100.742 19.4738 99.0069 20.8605 97.0054 20.8605C95.1374 20.8605 93.5362 19.6719 92.9358 18.0211C92.8023 17.691 92.4688 17.4269 92.0017 17.4929L89.8668 18.0872C90.6007 21.3227 93.4695 23.7658 97.0054 23.7658C100.541 23.7658 103.477 21.2567 104.144 17.9551C104.144 17.9551 104.211 17.5589 104.278 17.2288C104.278 16.9647 104.344 16.5024 104.344 16.5024C104.211 15.578 103.677 14.7856 102.876 14.5215Z" fill="white"/>
<path d="M141.371 13.7953L148.643 4.15479H145.508C145.174 4.15479 144.907 4.28685 144.707 4.55097L138.703 12.5407H134.566V4.15479H131.631V23.6999H134.566V15.314H138.903L144.841 23.2377C145.041 23.5018 145.308 23.6999 145.708 23.6999H148.844L141.371 13.7953Z" fill="white"/>
<path d="M161.786 22.5114C161.786 21.8511 161.252 21.2568 160.519 21.2568C159.851 21.2568 159.251 21.7851 159.251 22.5114C159.251 23.1717 159.785 23.766 160.519 23.766C161.252 23.7 161.786 23.1717 161.786 22.5114Z" fill="white"/>
<path d="M165.989 23.6999H165.656L160.919 13.7292H162.253C162.453 13.7292 162.654 13.8613 162.72 14.0594L165.789 20.5965L168.925 14.0594C168.992 13.8613 169.192 13.7953 169.392 13.7953H170.726L165.989 23.6999Z" fill="white"/>
<path d="M178.532 13.7292V20.3323L172.327 13.7292H171.927V23.6999H173.461V17.1628L179.666 23.6999H179.999V13.7292H178.532Z" fill="white"/>
<path d="M52.8391 35.1233C52.8391 35.8496 52.639 36.4439 52.1053 36.9721C51.5715 37.4344 50.8377 37.6985 50.0371 37.6985C49.1698 37.6985 48.4359 37.3683 47.9022 36.7741C47.3684 36.1798 47.1016 35.3874 47.1016 34.463V33.0763C47.1016 32.1519 47.3684 31.3595 47.9022 30.7653C48.4359 30.171 49.1698 29.8408 50.0371 29.8408C50.9044 29.8408 51.5715 30.0389 52.1053 30.5011C52.639 30.9633 52.8391 31.5576 52.8391 32.35H51.8384C51.8384 31.8217 51.705 31.4256 51.3714 31.0954C51.0378 30.7653 50.6375 30.6332 50.0371 30.6332C49.4366 30.6332 48.9696 30.8973 48.636 31.3595C48.3025 31.8217 48.1023 32.416 48.1023 33.0763V34.3969C48.1023 35.1233 48.3025 35.6515 48.636 36.1137C48.9696 36.576 49.4366 36.8401 50.0371 36.8401C50.6375 36.8401 51.0378 36.708 51.3714 36.3779C51.705 36.0477 51.8384 35.6515 51.8384 35.1233H52.8391Z" fill="white"/>
<path d="M54.9076 32.6802C55.1078 32.4161 55.3746 32.218 55.6415 32.0199C55.9084 31.8218 56.2419 31.8218 56.5755 31.8218C57.176 31.8218 57.643 32.0199 57.9766 32.35C58.3101 32.7462 58.5103 33.2745 58.5103 34.0008V37.5665H57.4428V34.0008C57.4428 33.5386 57.3094 33.2084 57.1092 32.9443C56.9091 32.7462 56.5755 32.6142 56.1752 32.6142C55.8416 32.6142 55.5748 32.6802 55.3746 32.8123C55.1745 32.9443 54.9743 33.0764 54.8409 33.3405V37.5665H53.7734V29.3787H54.8409V32.6802H54.9076Z" fill="white"/>
<path d="M63.3803 37.5664C63.3136 37.3683 63.3136 37.2362 63.3136 37.1042C63.3136 36.9721 63.3136 36.84 63.2469 36.708C63.0467 36.9721 62.7799 37.2362 62.513 37.3683C62.1794 37.5664 61.8459 37.6324 61.5123 37.6324C60.9118 37.6324 60.4448 37.5003 60.1779 37.1702C59.8444 36.84 59.7109 36.4438 59.7109 35.9156C59.7109 35.3874 59.9111 34.9251 60.3781 34.661C60.8451 34.3309 61.4456 34.1988 62.1794 34.1988H63.3136V33.6706C63.3136 33.3404 63.1802 33.0763 62.98 32.8782C62.7799 32.6801 62.513 32.6141 62.1127 32.6141C61.7791 32.6141 61.5123 32.6801 61.3121 32.8782C61.112 33.0763 60.9785 33.2744 60.9785 33.4725H59.9778C59.9778 33.0763 60.178 32.6801 60.5782 32.3499C60.9785 32.0198 61.5123 31.8217 62.1794 31.8217C62.8466 31.8217 63.3803 31.9538 63.7139 32.2839C64.1142 32.6141 64.3143 33.0763 64.3143 33.6706V36.3778C64.3143 36.5759 64.3143 36.774 64.3143 36.9721C64.3143 37.1702 64.3811 37.3683 64.4478 37.5003H63.3803V37.5664ZM61.6457 29.5106H62.513L64.0475 30.8312H62.98L62.046 30.0389L61.1787 30.8312H60.1112L61.6457 29.5106ZM61.6457 36.774C62.046 36.774 62.3796 36.708 62.6464 36.5099C62.98 36.3118 63.1802 36.1137 63.2469 35.8496V34.9251H62.046C61.6457 34.9251 61.3121 35.0572 61.0453 35.2553C60.8451 35.4534 60.7117 35.7175 60.7117 35.9816C60.7117 36.2458 60.7784 36.4438 60.9785 36.5759C61.112 36.708 61.3788 36.774 61.6457 36.774ZM64.3811 28.5862H65.5152L64.4478 29.9728H63.6472L64.3811 28.5862Z" fill="white"/>
<path d="M67.1164 30.5011V31.8877H68.1839V32.6801H67.1164V36.1137C67.1164 36.3778 67.1831 36.5759 67.3166 36.642C67.45 36.774 67.5834 36.774 67.7836 36.774C67.8503 36.774 67.917 36.774 67.9837 36.774C68.0504 36.774 68.1171 36.774 68.1839 36.708L68.3173 37.4343C68.2506 37.5004 68.1172 37.5664 67.9837 37.5664C67.8503 37.6324 67.6501 37.6324 67.5167 37.6324C67.1164 37.6324 66.7828 37.5004 66.516 37.2362C66.2491 36.9721 66.1157 36.5759 66.1157 36.0477V32.6141H65.1816V31.8217H66.1157V30.4351H67.1164V30.5011Z" fill="white"/>
<path d="M72.8536 37.5665H71.7861V29.3787H72.8536V37.5665Z" fill="white"/>
<path d="M80.7934 31.1615C80.7934 31.8218 80.6599 32.284 80.3264 32.6142C79.9928 32.9443 79.5258 33.1424 78.8586 33.2084V37.5665H77.9246L77.8579 36.7081C77.6577 37.0382 77.4576 37.2363 77.1907 37.4344C76.9238 37.5665 76.5903 37.6985 76.19 37.6985C75.5895 37.6985 75.0558 37.5004 74.7222 37.1043C74.3886 36.7081 74.1885 36.1138 74.1885 35.2554V31.8878H75.2559V35.2554C75.2559 35.8497 75.3227 36.2459 75.5228 36.51C75.7229 36.7741 75.9898 36.8401 76.3901 36.8401C76.7904 36.8401 77.0573 36.7741 77.3241 36.642C77.591 36.51 77.7244 36.3119 77.8579 35.9817V31.8878H78.9253V32.4821C79.2589 32.4821 79.5258 32.35 79.6592 32.0859C79.7926 31.8878 79.8593 31.5577 79.8593 31.0955H80.7934V31.1615Z" fill="white"/>
<path d="M80.2598 34.6609C80.2598 33.8025 80.4599 33.1422 80.9269 32.6139C81.3939 32.0857 81.9944 31.8216 82.795 31.8216C83.1286 31.8216 83.4621 31.8876 83.7957 32.0197C84.0626 32.1517 84.3294 32.2838 84.5963 32.5479C84.8632 32.4819 85.13 32.3498 85.2635 32.0857C85.3969 31.8876 85.4636 31.5574 85.4636 31.2273H86.3976C86.3976 31.7555 86.2642 32.1517 86.0641 32.4819C85.7972 32.812 85.4636 33.0101 84.9966 33.1422C85.13 33.3403 85.1968 33.6044 85.2635 33.8685C85.3302 34.1327 85.3302 34.4628 85.3302 34.7269V34.859C85.3302 35.7174 85.13 36.3777 84.663 36.9059C84.196 37.4342 83.5956 37.6983 82.795 37.6983C81.9944 37.6983 81.3939 37.4342 80.9269 36.9059C80.4599 36.3777 80.2598 35.6514 80.2598 34.859V34.6609ZM81.2605 34.793C81.2605 35.3872 81.3939 35.9155 81.6608 36.3117C81.9277 36.7079 82.328 36.9059 82.795 36.9059C83.262 36.9059 83.6623 36.7079 83.9292 36.3117C84.196 35.9155 84.3294 35.4533 84.3294 34.793V34.6609C84.3294 34.0666 84.196 33.6044 83.9292 33.2082C83.6623 32.812 83.262 32.6139 82.795 32.6139C82.328 32.6139 81.9277 32.812 81.6608 33.2082C81.3939 33.6044 81.2605 34.0666 81.2605 34.6609V34.793ZM83.3954 39.3491H82.2612V38.2926H83.3954V39.3491Z" fill="white"/>
<path d="M87.4653 31.8877L87.532 32.7461C87.7321 32.4159 87.9323 32.2178 88.2659 32.0197C88.5327 31.8216 88.8663 31.7556 89.2666 31.7556C89.8671 31.7556 90.3341 31.9537 90.6676 32.2839C91.0012 32.614 91.2014 33.2083 91.2014 33.9346V37.5003H90.1339V33.9346C90.1339 33.4064 90.0672 33.0762 89.8671 32.8781C89.6669 32.68 89.3333 32.548 88.933 32.548C88.5995 32.548 88.3326 32.614 88.1324 32.7461C87.9323 32.8781 87.7321 33.0762 87.5987 33.2743V37.5003H86.5312V31.8216H87.4653V31.8877Z" fill="white"/>
<path d="M92.3346 34.8592C92.3346 33.9348 92.5348 33.2084 92.9351 32.6802C93.3353 32.1519 93.8691 31.8218 94.603 31.8218C94.9365 31.8218 95.2701 31.8878 95.537 32.0199C95.8038 32.1519 96.0707 32.35 96.2041 32.6141L96.3376 31.8878H97.1382V37.5665C97.1382 38.2928 96.938 38.821 96.471 39.2172C96.0707 39.6134 95.4035 39.8115 94.603 39.8115C94.3361 39.8115 94.0025 39.7455 93.7356 39.6794C93.4021 39.6134 93.1352 39.4814 92.8683 39.3493L93.0018 38.5569C93.2019 38.689 93.4688 38.755 93.7356 38.821C94.0025 38.8871 94.2694 38.8871 94.603 38.8871C95.1367 38.8871 95.4703 38.755 95.7371 38.5569C95.9373 38.3588 96.0707 37.9626 96.0707 37.5004V36.8401C95.8706 37.1042 95.6704 37.2363 95.4035 37.3684C95.1367 37.5004 94.8698 37.5665 94.4695 37.5665C93.8024 37.5665 93.2019 37.3023 92.8016 36.8401C92.4013 36.3119 92.2012 35.6516 92.2012 34.8592H92.3346ZM93.4021 34.9252C93.4021 35.5195 93.5355 35.9817 93.7356 36.3119C93.9358 36.642 94.3361 36.8401 94.8031 36.8401C95.1367 36.8401 95.4035 36.7741 95.6037 36.642C95.8038 36.51 96.004 36.3119 96.1374 36.0478V33.4725C96.004 33.2084 95.8038 33.0103 95.6037 32.8783C95.4035 32.7462 95.1367 32.6802 94.8031 32.6802C94.3361 32.6802 93.9358 32.8783 93.6689 33.2745C93.4021 33.6706 93.3353 34.1989 93.3353 34.8592V34.9252H93.4021Z" fill="white"/>
<path d="M102.542 30.5011V31.8877H103.61V32.6801H102.542V36.1137C102.542 36.3778 102.609 36.5759 102.742 36.642C102.876 36.774 103.009 36.774 103.209 36.774C103.276 36.774 103.343 36.774 103.409 36.774C103.476 36.774 103.543 36.774 103.61 36.708L103.743 37.4343C103.676 37.5004 103.543 37.5664 103.409 37.5664C103.276 37.6324 103.076 37.6324 102.942 37.6324C102.542 37.6324 102.209 37.5004 101.942 37.2362C101.675 36.9721 101.541 36.5759 101.541 36.0477V32.6141H100.607V31.8217H101.541V30.4351H102.542V30.5011Z" fill="white"/>
<path d="M105.612 32.6802C105.812 32.4161 106.079 32.218 106.346 32.0199C106.612 31.8878 106.946 31.8218 107.28 31.8218C107.88 31.8218 108.347 32.0199 108.681 32.35C109.014 32.7462 109.214 33.2745 109.214 34.0008V37.5665H108.147V34.0008C108.147 33.5386 108.013 33.2084 107.813 32.9443C107.613 32.7462 107.28 32.6142 106.879 32.6142C106.546 32.6142 106.279 32.6802 106.079 32.8123C105.879 32.9443 105.678 33.0764 105.545 33.3405V37.5665H104.478V29.3787H105.545V32.6802H105.612Z" fill="white"/>
<path d="M114.084 37.5664C114.018 37.3683 114.018 37.2362 114.018 37.1042C114.018 36.9721 114.018 36.84 113.951 36.708C113.751 36.9721 113.484 37.2362 113.217 37.3683C112.884 37.5664 112.55 37.6324 112.216 37.6324C111.616 37.6324 111.149 37.5003 110.882 37.1702C110.548 36.84 110.415 36.4438 110.415 35.9156C110.415 35.3874 110.615 34.9251 111.082 34.661C111.549 34.3309 112.15 34.1988 112.884 34.1988H114.018V33.6706C114.018 33.3404 113.884 33.0763 113.684 32.8782C113.484 32.6801 113.217 32.6141 112.817 32.6141C112.483 32.6141 112.216 32.6801 112.016 32.8782C111.816 33.0763 111.683 33.2744 111.683 33.4725H110.682C110.682 33.0763 110.882 32.6801 111.282 32.3499C111.683 32.0198 112.216 31.8217 112.884 31.8217C113.551 31.8217 114.084 31.9538 114.418 32.2839C114.818 32.6141 115.018 33.0763 115.018 33.6706V36.3778C115.018 36.5759 115.018 36.774 115.018 36.9721C115.018 37.1702 115.085 37.3683 115.152 37.5003H114.084V37.5664ZM114.351 30.6992V30.8312H113.484L112.683 30.0389L111.883 30.8312H111.015V30.6992L112.35 29.4446H113.017L114.351 30.6992ZM112.35 36.774C112.75 36.774 113.084 36.708 113.351 36.5099C113.684 36.3118 113.884 36.1137 113.951 35.8496V34.9251H112.75C112.35 34.9251 112.016 35.0572 111.749 35.2553C111.482 35.4534 111.349 35.7175 111.349 35.9816C111.349 36.2458 111.416 36.4438 111.616 36.5759C111.816 36.708 112.016 36.774 112.35 36.774ZM113.017 39.3492H111.883V38.2927H113.017V39.3492Z" fill="white"/>
<path d="M117.821 30.5011V31.8877H118.888V32.6801H117.821V36.1137C117.821 36.3778 117.887 36.5759 118.021 36.642C118.154 36.774 118.288 36.774 118.488 36.774C118.554 36.774 118.621 36.774 118.688 36.774C118.755 36.774 118.821 36.774 118.888 36.708L119.021 37.4343C118.955 37.5004 118.821 37.5664 118.688 37.5664C118.554 37.6324 118.354 37.6324 118.221 37.6324C117.821 37.6324 117.487 37.5004 117.22 37.2362C116.953 36.9721 116.82 36.5759 116.82 36.0477V32.6141H115.886V31.8217H116.82V30.4351H117.821V30.5011Z" fill="white"/>
<path d="M125.627 34.7269H122.491V33.9346H125.627V34.7269Z" fill="white"/>
<path d="M135.3 36.5099C135.1 36.7741 134.766 37.0382 134.366 37.3023C133.899 37.5664 133.299 37.6325 132.631 37.6325C131.764 37.6325 131.03 37.3683 130.43 36.7741C129.829 36.1798 129.562 35.4534 129.562 34.529V32.9443C129.562 32.0198 129.829 31.2935 130.43 30.6992C130.964 30.1049 131.697 29.8408 132.631 29.8408C133.499 29.8408 134.166 30.0389 134.633 30.5011C135.1 30.9633 135.367 31.5576 135.367 32.2179H134.366C134.366 31.7557 134.233 31.3595 133.899 31.0294C133.565 30.6992 133.165 30.5672 132.631 30.5672C132.031 30.5672 131.564 30.7653 131.23 31.2275C130.897 31.6897 130.697 32.2179 130.697 32.8782V34.463C130.697 35.1233 130.897 35.7176 131.297 36.1137C131.697 36.576 132.164 36.7741 132.765 36.7741C133.232 36.7741 133.565 36.708 133.832 36.576C134.099 36.4439 134.299 36.3118 134.433 36.1798V34.463H132.698V33.7366H135.5V36.5099H135.3Z" fill="white"/>
<path d="M137.902 30.4352H136.835V29.3787H137.902V30.4352ZM137.902 37.5665H136.835V31.8878H137.902V37.5665Z" fill="white"/>
<path d="M142.906 37.5663C142.839 37.3682 142.839 37.2361 142.839 37.104C142.839 36.972 142.839 36.8399 142.772 36.7079C142.572 36.972 142.305 37.2361 142.038 37.3682C141.705 37.5663 141.371 37.6323 141.038 37.6323C140.437 37.6323 139.97 37.5002 139.703 37.1701C139.37 36.8399 139.236 36.4437 139.236 35.9155C139.236 35.3872 139.436 34.925 139.903 34.6609C140.371 34.3307 140.971 34.1987 141.705 34.1987H142.839V33.6704C142.839 33.3403 142.706 33.0762 142.505 32.8781C142.305 32.68 142.038 32.6139 141.638 32.6139C141.305 32.6139 141.038 32.68 140.838 32.8781C140.637 33.0762 140.504 33.2743 140.504 33.4723H139.503C139.503 33.0762 139.703 32.68 140.104 32.3498C140.504 32.0197 141.038 31.8216 141.705 31.8216C142.372 31.8216 142.906 31.9536 143.239 32.2838C143.64 32.6139 143.84 33.0762 143.84 33.6704V36.3777C143.84 36.5758 143.84 36.7739 143.84 36.972C143.84 37.1701 143.906 37.3682 143.973 37.5002H142.906V37.5663ZM141.171 36.7739C141.571 36.7739 141.905 36.7079 142.172 36.5098C142.505 36.3117 142.706 36.1136 142.772 35.8495V34.925H141.571C141.171 34.925 140.838 35.0571 140.571 35.2552C140.304 35.4533 140.17 35.7174 140.17 35.9815C140.17 36.2456 140.237 36.4437 140.437 36.5758C140.571 36.7079 140.838 36.7739 141.171 36.7739ZM142.038 29.5105H143.239L141.838 30.8971H141.038L142.038 29.5105Z" fill="white"/>
<path d="M149.111 30.5011V31.8877H150.178V32.6801H149.111V36.1137C149.111 36.3778 149.177 36.5759 149.311 36.642C149.444 36.774 149.578 36.774 149.778 36.774C149.844 36.774 149.911 36.774 149.978 36.774C150.045 36.774 150.111 36.774 150.178 36.708L150.311 37.4343C150.245 37.5004 150.111 37.5664 149.978 37.5664C149.844 37.6324 149.644 37.6324 149.511 37.6324C149.111 37.6324 148.777 37.5004 148.51 37.2362C148.243 36.9721 148.11 36.5759 148.11 36.0477V32.6141H147.176V31.8217H148.11V30.4351H149.111V30.5011Z" fill="white"/>
<path d="M153.914 32.8122H153.38C153.113 32.8122 152.847 32.8783 152.713 33.0103C152.513 33.1424 152.38 33.3405 152.246 33.5386V37.5665H151.179V31.8878H152.113L152.246 32.7462C152.38 32.4821 152.58 32.218 152.847 32.0859C153.113 31.9538 153.38 31.8218 153.647 31.8218C153.714 31.8218 153.781 31.8218 153.847 31.8218C153.914 31.8218 153.981 31.8218 154.047 31.8878L153.914 32.8122Z" fill="white"/>
<path d="M155.982 39.2833H154.848V38.2268H155.982V39.2833ZM155.915 30.4352H154.848V29.3787H155.915V30.4352ZM155.915 37.5665H154.848V31.8878H155.915V37.5665Z" fill="white"/>
<path d="M161.386 30.5011V31.8877H162.453V32.6801H161.386V36.1137C161.386 36.3778 161.453 36.5759 161.586 36.642C161.72 36.774 161.853 36.774 162.053 36.774C162.12 36.774 162.187 36.774 162.253 36.774C162.32 36.774 162.387 36.774 162.453 36.708L162.587 37.4343C162.52 37.5004 162.387 37.5664 162.253 37.5664C162.12 37.6324 161.92 37.6324 161.786 37.6324C161.386 37.6324 161.052 37.5004 160.785 37.2362C160.519 36.9721 160.385 36.5759 160.385 36.0477V32.6141H159.451V31.8217H160.385V30.4351H161.386V30.5011Z" fill="white"/>
<path d="M164.455 32.6802C164.656 32.4161 164.922 32.218 165.189 32.0199C165.456 31.8878 165.79 31.8218 166.123 31.8218C166.724 31.8218 167.191 32.0199 167.524 32.35C167.858 32.7462 168.058 33.2745 168.058 34.0008V37.5665H166.991V34.0008C166.991 33.5386 166.857 33.2084 166.657 32.9443C166.457 32.7462 166.123 32.6142 165.723 32.6142C165.389 32.6142 165.123 32.6802 164.922 32.8123C164.722 32.9443 164.522 33.0764 164.389 33.3405V37.5665H163.321V29.3787H164.389V32.6802H164.455Z" fill="white"/>
<path d="M172.928 37.5664C172.861 37.3683 172.861 37.2362 172.861 37.1042C172.861 36.9721 172.861 36.84 172.795 36.708C172.595 36.9721 172.328 37.2362 172.061 37.3683C171.727 37.5664 171.394 37.6324 171.06 37.6324C170.46 37.6324 169.993 37.5003 169.726 37.1702C169.392 36.84 169.259 36.4438 169.259 35.9156C169.259 35.3874 169.459 34.9251 169.926 34.661C170.393 34.3309 170.993 34.1988 171.727 34.1988H172.861V33.6706C172.861 33.3404 172.728 33.0763 172.528 32.8782C172.328 32.6801 172.061 32.6141 171.661 32.6141C171.327 32.6141 171.06 32.6801 170.86 32.8782C170.66 33.0763 170.526 33.2744 170.526 33.4725H169.526C169.526 33.0763 169.726 32.6801 170.126 32.3499C170.526 32.0198 171.06 31.8217 171.727 31.8217C172.394 31.8217 172.928 31.9538 173.262 32.2839C173.662 32.6141 173.862 33.0763 173.862 33.6706V36.3778C173.862 36.5759 173.862 36.774 173.862 36.9721C173.862 37.1702 173.929 37.3683 173.996 37.5003H172.928V37.5664ZM173.195 30.6992V30.8312H172.328L171.527 30.0389L170.727 30.8312H169.859V30.6992L171.194 29.4446H171.861L173.195 30.6992ZM171.194 36.774C171.594 36.774 171.927 36.708 172.194 36.5099C172.528 36.3118 172.728 36.1137 172.795 35.8496V34.9251H171.594C171.194 34.9251 170.86 35.0572 170.593 35.2553C170.326 35.4534 170.193 35.7175 170.193 35.9816C170.193 36.2458 170.26 36.4438 170.46 36.5759C170.66 36.708 170.86 36.774 171.194 36.774ZM171.927 39.3492H170.793V38.2927H171.927V39.3492Z" fill="white"/>
<path d="M176.664 30.5011V31.8877H177.732V32.6801H176.664V36.1137C176.664 36.3778 176.731 36.5759 176.864 36.642C176.998 36.774 177.131 36.774 177.331 36.774C177.398 36.774 177.465 36.774 177.532 36.774C177.598 36.774 177.665 36.774 177.732 36.708L177.865 37.4343C177.798 37.5004 177.665 37.5664 177.532 37.5664C177.398 37.6324 177.198 37.6324 177.065 37.6324C176.664 37.6324 176.331 37.5004 176.064 37.2362C175.797 36.9721 175.664 36.5759 175.664 36.0477V32.6141H174.729V31.8217H175.664V30.4351H176.664V30.5011Z" fill="white"/>
<path d="M179.866 35.0571H178.799V29.9067H179.866V35.0571ZM179.866 37.5663H178.799V36.5098H179.866V37.5663Z" fill="white"/>
</g>
<defs>
<clipPath id="clip0_3091_15674">
<rect width="180" height="40.2788" fill="white" transform="translate(0 0.721191)"/>
</clipPath>
</defs>
</svg>
